<svg width="136" height="136" viewBox="0 0 136 136" fill="none" xmlns="http://www.w3.org/2000/svg">
<mask id="mask0_59_7" style="mask-type:alpha" maskUnits="userSpaceOnUse" x="0" y="0" width="136" height="136">
<circle cx="68" cy="68" r="68" fill="#D9D9D9"/>
</mask>
<g mask="url(#mask0_59_7)">
<circle cx="68" cy="68" r="68" fill="white"/>
<path d="M68.5634 116.389C52.4768 116.389 36.3829 116.231 20.2998 116.472C14.4158 116.565 10.5961 112.562 10.6212 106.75C10.7469 77.4809 10.6751 48.2118 10.6858 18.9427C10.6858 12.4018 13.7876 9.29286 20.3106 9.29286C52.4875 9.28568 84.6645 9.28568 116.841 9.29286C122.909 9.29286 125.942 12.3372 125.946 18.4258C125.956 48.1795 125.921 77.9332 126 107.687C126.01 111.166 124.449 114.734 120.83 115.912C119.663 116.289 118.36 116.368 117.121 116.371C100.938 116.4 84.7507 116.389 68.567 116.389H68.5634ZM68.4019 108.66C73.2484 108.66 78.1092 108.85 82.9413 108.599C86.5887 108.409 90.3008 108.017 93.8153 107.084C101.318 105.084 106.079 99.9039 107.572 92.4367C108.624 87.1738 108.778 81.6632 108.742 76.2675C108.703 70.0568 107.748 63.9 104.862 58.2494C104.154 56.8601 104.589 55.9626 105.526 54.8999C106.667 53.6075 107.863 52.2362 108.538 50.6817C112.207 42.2094 110.595 34.4155 105.077 27.2858C104.42 26.4386 103.185 25.297 102.417 25.4334C101.013 25.6811 101.512 27.3433 101.484 28.4274C101.347 33.2237 99.2829 36.9824 95.5242 39.8615C92.1245 42.4643 91.1839 42.4427 87.4037 40.3821C82.4064 37.6573 77.0143 36.0669 71.36 35.6325C63.0098 34.9899 55.1872 36.8747 48.036 41.2652C46.302 42.3278 44.7116 42.256 43.15 41.2185C39.219 38.605 36.2967 35.2448 35.5967 30.3624C35.4064 29.0234 35.2736 27.6735 35.0474 26.3381C34.8392 25.1247 34.2253 24.8841 33.2488 25.5914C32.9365 25.8175 32.6601 26.1011 32.4124 26.3955C28.668 30.8363 26.4171 35.8874 26.4028 41.7642C26.3884 46.4455 27.408 50.8289 30.8866 54.2681C32.4914 55.8549 32.6637 57.4201 31.619 59.47C30.6174 61.4373 29.8707 63.5877 29.3717 65.7417C27.4044 74.2679 27.5946 82.9341 29.0522 91.4387C30.3051 98.7371 34.6274 104.086 41.8791 106.725C45.5768 108.068 49.4037 108.534 53.2701 108.628C58.3105 108.75 63.3544 108.656 68.3947 108.66H68.4019Z" fill="white"/>
<path d="M68.4019 108.66C73.2484 108.66 78.1092 108.85 82.9413 108.599C86.5887 108.409 90.3008 108.017 93.8153 107.084C101.318 105.084 106.079 99.9039 107.572 92.4367C108.624 87.1738 108.778 81.6632 108.742 76.2675C108.703 70.0568 107.748 63.9 104.862 58.2494C104.154 56.8601 104.589 55.9626 105.526 54.8999C106.667 53.6075 107.863 52.2362 108.538 50.6817C112.207 42.2094 110.595 34.4155 105.077 27.2858C104.42 26.4386 103.185 25.297 102.417 25.4334C101.013 25.6811 101.512 27.3433 101.484 28.4274C101.347 33.2237 99.2829 36.9824 95.5242 39.8615C92.1245 42.4643 91.1839 42.4427 87.4037 40.3821C82.4064 37.6573 77.0143 36.0669 71.36 35.6325C63.0098 34.9899 55.1872 36.8747 48.036 41.2652C46.302 42.3278 44.7116 42.256 43.15 41.2185C39.219 38.605 36.2967 35.2448 35.5967 30.3624C35.4064 29.0234 35.2736 27.6735 35.0474 26.3381C34.8392 25.1247 34.2253 24.8841 33.2488 25.5914C32.9365 25.8175 32.6601 26.1011 32.4124 26.3955C28.668 30.8363 26.4171 35.8874 26.4028 41.7642C26.3884 46.4455 27.408 50.8289 30.8866 54.2681C32.4914 55.8549 32.6637 57.4201 31.619 59.47C30.6174 61.4373 29.8707 63.5877 29.3717 65.7417C27.4044 74.2679 27.5946 82.9341 29.0522 91.4387C30.3051 98.7371 34.6274 104.086 41.8791 106.725C45.5768 108.068 49.4037 108.534 53.2701 108.628C58.3105 108.75 63.3544 108.656 68.3947 108.66H68.4019Z" fill="black"/>
<path d="M68.4164 90.929C57.4885 91.6649 49.1382 81.8248 49.2961 72.1103C49.4649 61.466 57.3772 53.1014 68.4559 53.069C80.4931 53.0367 87.6084 63.0528 87.5258 72.4047C87.4504 80.9416 80.1771 91.4567 68.42 90.9325L68.4164 90.929ZM80.4931 65.6663C80.4787 62.7692 77.858 60.0408 75.1189 60.0731C71.8053 60.1126 69.4826 62.4604 69.4826 65.7668C69.4826 69.0803 71.7838 71.4067 75.1153 71.4605C78.278 71.5144 80.511 69.1055 80.4966 65.6663H80.4931Z" fill="white"/>
<path d="M80.4931 65.6663C80.4787 62.7692 77.858 60.0408 75.1189 60.0731C71.8053 60.1126 69.4826 62.4604 69.4826 65.7668C69.4826 69.0803 71.7838 71.4067 75.1153 71.4605C78.278 71.5144 80.511 69.1055 80.4966 65.6663H80.4931Z" fill="black"/>
</g>
</svg>
